<svg width="58" height="65" viewBox="0 0 58 65" fill="none" xmlns="http://www.w3.org/2000/svg">
<path d="M1 55C1 52.6131 1.84286 50.3239 3.34315 48.636C4.84344 46.9482 6.87827 46 9 46C11.1217 46 13.1566 46.9482 14.6569 48.636C16.1571 50.3239 17 52.6131 17 55C17 57.3869 16.1571 59.6761 14.6569 61.364C13.1566 63.0518 11.1217 64 9 64C6.87827 64 4.84344 63.0518 3.34315 61.364C1.84286 59.6761 1 57.3869 1 55ZM1 55V31M9 1C35.4667 1 57 25.225 57 55M43.6667 55C43.6667 33.496 28.1147 16 9 16M30.3333 55C30.3333 41.767 20.7627 31 9 31" stroke="#90F8C0" stroke-width="2"/>
</svg>
