<svg width="75" height="68" viewBox="0 0 75 68" fill="none" xmlns="http://www.w3.org/2000/svg">
<path d="M32.8125 36.8333H10.9375C10 36.8333 9.375 37.4 9.375 38.25V58.0833C9.375 58.9333 10 59.5 10.9375 59.5H32.8125C33.75 59.5 34.375 58.9333 34.375 58.0833V38.25C34.375 37.4 33.75 36.8333 32.8125 36.8333ZM31.25 56.6667H12.5V39.6667H31.25V56.6667ZM32.8125 8.5H10.9375C10 8.5 9.375 9.06667 9.375 9.91667V29.75C9.375 30.6 10 31.1667 10.9375 31.1667H32.8125C33.75 31.1667 34.375 30.6 34.375 29.75V9.91667C34.375 9.06667 33.75 8.5 32.8125 8.5ZM31.25 28.3333H12.5V11.3333H31.25V28.3333ZM64.0625 8.5H42.1875C41.25 8.5 40.625 9.06667 40.625 9.91667V29.75C40.625 30.6 41.25 31.1667 42.1875 31.1667H64.0625C65 31.1667 65.625 30.6 65.625 29.75V9.91667C65.625 9.06667 65 8.5 64.0625 8.5ZM62.5 28.3333H43.75V11.3333H62.5V28.3333ZM64.0625 46.75H54.6875V38.25C54.6875 37.4 54.0625 36.8333 53.125 36.8333C52.1875 36.8333 51.5625 37.4 51.5625 38.25V46.75H42.1875C41.25 46.75 40.625 47.3167 40.625 48.1667C40.625 49.0167 41.25 49.5833 42.1875 49.5833H51.5625V58.0833C51.5625 58.9333 52.1875 59.5 53.125 59.5C54.0625 59.5 54.6875 58.9333 54.6875 58.0833V49.5833H64.0625C65 49.5833 65.625 49.0167 65.625 48.1667C65.625 47.3167 65 46.75 64.0625 46.75Z" fill="#90F8C0"/>
</svg>
