<svg width="70" height="70" viewBox="0 0 70 70" fill="none" xmlns="http://www.w3.org/2000/svg">
<circle cx="35" cy="35" r="33.5" stroke="#90F8C0" stroke-width="3"/>
<g clip-path="url(#clip0_108_16)">
<path d="M54.4444 18.3333H15.5555C14.8188 18.3333 14.1123 18.626 13.5914 19.1469C13.0704 19.6679 12.7778 20.3744 12.7778 21.1111V48.8889C12.7778 49.6256 13.0704 50.3321 13.5914 50.8531C14.1123 51.374 14.8188 51.6667 15.5555 51.6667H54.4444C55.1811 51.6667 55.8877 51.374 56.4086 50.8531C56.9296 50.3321 57.2222 49.6256 57.2222 48.8889V21.1111C57.2222 20.3744 56.9296 19.6679 56.4086 19.1469C55.8877 18.626 55.1811 18.3333 54.4444 18.3333ZM52.3055 48.8889H17.8611L27.5833 38.8333L25.5833 36.9028L15.5555 47.2778V23.2222L32.8194 40.4028C33.3399 40.9201 34.0439 41.2105 34.7778 41.2105C35.5116 41.2105 36.2157 40.9201 36.7361 40.4028L54.4444 22.7917V47.0972L44.2222 36.875L42.2639 38.8333L52.3055 48.8889ZM17.375 21.1111H52.1944L34.7778 38.4306L17.375 21.1111Z" fill="#90F8C0"/>
</g>
<defs>
<clipPath id="clip0_108_16">
<rect width="50" height="50" fill="white" transform="translate(10 10)"/>
</clipPath>
</defs>
</svg>
