<svg width="35" height="29" viewBox="0 0 35 29" fill="none" xmlns="http://www.w3.org/2000/svg">
<path d="M0 2C0 0.89543 0.895431 0 2 0H33C34.1046 0 35 0.895431 35 2V27C35 28.1046 34.1046 29 33 29H2C0.89543 29 0 28.1046 0 27V2Z" fill="#90F8C0"/>
<path fill-rule="evenodd" clip-rule="evenodd" d="M6.25 18.6429C6.74728 18.6429 7.22419 18.8066 7.57583 19.0979C7.92746 19.3893 8.125 19.7844 8.125 20.1965C8.125 20.6085 7.92746 21.0037 7.57583 21.295C7.22419 21.5864 6.74728 21.7501 6.25 21.7501C5.75272 21.7501 5.27581 21.5864 4.92417 21.295C4.57254 21.0037 4.375 20.6085 4.375 20.1965C4.375 19.7844 4.57254 19.3893 4.92417 19.0979C5.27581 18.8066 5.75272 18.6429 6.25 18.6429ZM28.7488 19.1608C29.44 19.1608 30 19.6206 30 20.1965C30 20.7687 29.4438 21.2322 28.7488 21.2322H11.2513C11.0869 21.2326 10.9241 21.2061 10.7721 21.1542C10.6202 21.1023 10.4821 21.0261 10.3658 20.9298C10.2496 20.8336 10.1574 20.7192 10.0946 20.5934C10.0318 20.4675 9.99967 20.3327 10 20.1965C10 19.6242 10.5563 19.1608 11.2513 19.1608H28.7488ZM6.25 13.4643C6.74728 13.4643 7.22419 13.628 7.57583 13.9194C7.92746 14.2107 8.125 14.6059 8.125 15.0179C8.125 15.4299 7.92746 15.8251 7.57583 16.1165C7.22419 16.4078 6.74728 16.5715 6.25 16.5715C5.75272 16.5715 5.27581 16.4078 4.92417 16.1165C4.57254 15.8251 4.375 15.4299 4.375 15.0179C4.375 14.6059 4.57254 14.2107 4.92417 13.9194C5.27581 13.628 5.75272 13.4643 6.25 13.4643ZM28.7488 13.9822C29.44 13.9822 30 14.4421 30 15.0179C30 15.5901 29.4438 16.0536 28.7488 16.0536H11.2513C11.0869 16.054 10.9241 16.0275 10.7721 15.9756C10.6202 15.9237 10.4821 15.8475 10.3658 15.7512C10.2496 15.655 10.1574 15.5407 10.0946 15.4148C10.0318 15.289 9.99967 15.1541 10 15.0179C10 14.4457 10.5563 13.9822 11.2513 13.9822H28.7488ZM6.25 8.28577C6.74728 8.28577 7.22419 8.44945 7.57583 8.7408C7.92746 9.03215 8.125 9.42731 8.125 9.83934C8.125 10.2514 7.92746 10.6465 7.57583 10.9379C7.22419 11.2292 6.74728 11.3929 6.25 11.3929C5.75272 11.3929 5.27581 11.2292 4.92417 10.9379C4.57254 10.6465 4.375 10.2514 4.375 9.83934C4.375 9.42731 4.57254 9.03215 4.92417 8.7408C5.27581 8.44945 5.75272 8.28577 6.25 8.28577ZM28.7488 8.80362C29.44 8.80362 30 9.26348 30 9.83934C30 10.4116 29.4438 10.8751 28.7488 10.8751H11.2513C11.0869 10.8755 10.9241 10.849 10.7721 10.7971C10.6202 10.7452 10.4821 10.6689 10.3658 10.5727C10.2496 10.4764 10.1574 10.3621 10.0946 10.2363C10.0318 10.1104 9.99967 9.97551 10 9.83934C10 9.26711 10.5563 8.80362 11.2513 8.80362H28.7488Z" fill="black"/>
</svg>
