<svg width="70" height="70" viewBox="0 0 70 70" fill="none" xmlns="http://www.w3.org/2000/svg">
<g clip-path="url(#clip0_108_3)">
<path d="M24.6333 14.8125C26.1979 15.3425 27.6862 16.0751 29.0604 16.9917C31.0012 16.4956 32.9968 16.2465 35 16.25C37.0688 16.25 39.0646 16.5083 40.9354 16.9896C42.3091 16.0739 43.7967 15.342 45.3604 14.8125C46.8125 14.3187 48.8813 13.5187 50.1104 14.8792C50.9438 15.8042 51.1521 17.3542 51.3 18.5375C51.4667 19.8583 51.5063 21.5792 51.0688 23.2875C52.7417 25.4479 53.75 28.025 53.75 30.8333C53.75 35.0875 51.4458 38.7812 48.0354 41.3396C46.3941 42.5553 44.5738 43.5083 42.6396 44.1646C43.0854 45.1854 43.3333 46.3146 43.3333 47.5V53.75C43.3333 54.3025 43.1138 54.8324 42.7231 55.2231C42.3324 55.6138 41.8025 55.8333 41.25 55.8333H28.75C28.1975 55.8333 27.6676 55.6138 27.2769 55.2231C26.8862 54.8324 26.6667 54.3025 26.6667 53.75V51.6854C24.6771 51.9292 23.0083 51.7125 21.5896 51.1104C20.1063 50.4812 19.0729 49.5062 18.2958 48.5729C17.5583 47.6896 16.7542 45.6979 15.5917 45.3104C15.332 45.224 15.092 45.0872 14.8852 44.908C14.6784 44.7288 14.5089 44.5105 14.3865 44.2658C14.1392 43.7716 14.0983 43.1994 14.2729 42.675C14.4475 42.1506 14.8233 41.7171 15.3175 41.4698C15.8117 41.2225 16.384 41.1816 16.9083 41.3562C18.2958 41.8187 19.2 42.8187 19.8188 43.6229C20.8188 44.9146 21.6313 46.6021 23.2146 47.275C23.8667 47.5521 24.8229 47.7333 26.3188 47.5292L26.6667 47.4583C26.6707 46.3246 26.9068 45.2036 27.3604 44.1646C25.4262 43.5084 23.6059 42.5553 21.9646 41.3396C18.5542 38.7812 16.25 35.0896 16.25 30.8333C16.25 28.0292 17.2563 25.4542 18.925 23.2958C18.4875 21.5875 18.525 19.8625 18.6917 18.5396L18.7021 18.4604C18.8542 17.2479 19.0313 15.8208 19.8813 14.8792C21.1104 13.5187 23.1813 14.3208 24.6313 14.8146L24.6333 14.8125Z" fill="#90F8C0"/>
</g>
<circle cx="35" cy="35" r="33.5" stroke="#90F8C0" stroke-width="3"/>
<defs>
<clipPath id="clip0_108_3">
<rect width="50" height="50" fill="white" transform="translate(10 10)"/>
</clipPath>
</defs>
</svg>
