<svg width="64" height="54" viewBox="0 0 64 54" fill="none" xmlns="http://www.w3.org/2000/svg">
<path d="M30.387 4.73182C30.8152 4.34544 31.3956 4.12841 32.0007 4.12841C32.6059 4.12841 33.1863 4.34544 33.6145 4.73182L60.0745 28.6383C60.2853 28.8352 60.5373 28.9923 60.816 29.1003C61.0947 29.2083 61.3944 29.2651 61.6976 29.2674C62.0008 29.2696 62.3015 29.2173 62.5821 29.1134C62.8627 29.0096 63.1176 28.8563 63.3319 28.6624C63.5462 28.4686 63.7157 28.2382 63.8303 27.9846C63.945 27.731 64.0027 27.4592 63.9999 27.1853C63.9971 26.9113 63.934 26.6406 63.8142 26.3889C63.6944 26.1373 63.5203 25.9097 63.3021 25.7194L36.8451 1.81298C36.209 1.2382 35.4537 0.782251 34.6225 0.471179C33.7913 0.160107 32.9004 0 32.0007 0C31.1011 0 30.2102 0.160107 29.379 0.471179C28.5478 0.782251 27.7925 1.2382 27.1564 1.81298L0.696389 25.7194C0.478378 25.9098 0.304525 26.1376 0.184974 26.3894C0.0654228 26.6411 0.00256804 26.9119 7.70609e-05 27.1859C-0.00241392 27.4598 0.0555086 27.7315 0.170465 27.985C0.285422 28.2385 0.45511 28.4688 0.669629 28.6625C0.884148 28.8561 1.1392 29.0092 1.41991 29.1128C1.70061 29.2164 2.00135 29.2685 2.30457 29.266C2.60779 29.2635 2.90742 29.2065 3.18598 29.0982C3.46454 28.99 3.71644 28.8327 3.927 28.6355L30.387 4.73182Z" fill="#90F8C0"/>
<path d="M32.0011 9.10872L56.8442 31.5544C56.9356 31.6369 57.0269 31.7139 57.1213 31.791V48.8418C57.1213 51.6891 54.5636 54 51.4122 54H41.1357C40.53 54 39.9492 53.7826 39.5209 53.3957C39.0926 53.0088 38.852 52.4839 38.852 51.9367V39.5571C38.852 39.0099 38.6114 38.4851 38.1832 38.0982C37.7549 37.7112 37.1741 37.4938 36.5684 37.4938H27.4338C26.8281 37.4938 26.2472 37.7112 25.819 38.0982C25.3907 38.4851 25.1501 39.0099 25.1501 39.5571V51.9367C25.1501 52.4839 24.9095 53.0088 24.4812 53.3957C24.053 53.7826 23.4721 54 22.8665 54H12.59C11.0758 54 9.6237 53.4566 8.55303 52.4892C7.48236 51.5219 6.88086 50.2099 6.88086 48.8418V31.791C6.97559 31.7144 7.06799 31.6355 7.15794 31.5544L32.0011 9.10872Z" fill="#90F8C0"/>
</svg>
