<svg width="34" height="36" viewBox="0 0 34 36" fill="none" xmlns="http://www.w3.org/2000/svg">
<path fill-rule="evenodd" clip-rule="evenodd" d="M17.6206 4.16701C17.4159 4.09786 17.194 4.11396 17.0001 4.21201C16.904 4.2591 16.8188 4.32777 16.7503 4.41325C16.6818 4.49873 16.6317 4.59897 16.6034 4.70701L15.9291 7.45801C15.6935 8.41945 15.3512 9.34793 14.9091 10.224C14.222 11.5845 13.1836 12.63 12.2203 13.509L10.1831 15.369C10.0273 15.5113 9.90557 15.6908 9.82799 15.8926C9.75041 16.0945 9.71918 16.3129 9.73686 16.53L10.8872 30.6195C10.9152 30.9617 11.0632 31.2804 11.3021 31.5128C11.541 31.7452 11.8534 31.8744 12.1778 31.875H18.7639C23.2065 31.875 26.9508 28.602 27.669 24.2055L28.6678 18.0855C28.7002 17.8883 28.6915 17.6859 28.6423 17.4926C28.5931 17.2993 28.5047 17.1198 28.3831 16.9664C28.2615 16.8131 28.1098 16.6898 27.9385 16.6051C27.7672 16.5204 27.5804 16.4763 27.3914 16.476H20.0516C18.6675 16.476 17.6149 15.162 17.8388 13.716L18.778 7.65001C18.9067 6.81915 18.87 5.96899 18.6704 5.15401C18.614 4.93826 18.5071 4.7411 18.3594 4.58086C18.2118 4.42062 18.0283 4.30251 17.826 4.23751L17.6206 4.16701ZM16.0764 2.18551C16.7615 1.83653 17.547 1.77909 18.2709 2.02501L18.4763 2.09551C19.577 2.47051 20.4355 3.40051 20.7274 4.58851C21.0008 5.70751 21.0518 6.87451 20.8747 8.01451L19.9354 14.0805C19.9326 14.0984 19.9334 14.1167 19.9379 14.1343C19.9424 14.1518 19.9505 14.168 19.9615 14.1819C19.9726 14.1957 19.9864 14.2069 20.002 14.2145C20.0175 14.2221 20.0345 14.226 20.0516 14.226H27.3899C29.5149 14.226 31.1243 16.254 30.7616 18.4695L29.7629 24.5895C28.859 30.1215 24.184 34.125 18.7639 34.125H12.1778C11.3215 34.1242 10.4967 33.7837 9.86593 33.1706C9.23519 32.5574 8.84441 31.7162 8.77069 30.813L7.61894 16.7235C7.57212 16.1513 7.6543 15.5755 7.85872 15.0435C8.06315 14.5115 8.38397 14.0386 8.79478 13.6635L10.8348 11.8035C11.7627 10.9575 12.5433 10.137 13.0334 9.16351C13.3974 8.44456 13.6789 7.68216 13.8721 6.89251L14.5464 4.14301C14.6519 3.71865 14.8434 3.32371 15.1076 2.98566C15.3719 2.64761 15.7025 2.37456 16.0764 2.18551ZM4.20478 14.2275C4.47856 14.2148 4.74638 14.3147 4.9523 14.5061C5.15821 14.6976 5.28629 14.9659 5.30978 15.255L6.68394 32.109C6.70722 32.36 6.68194 32.6134 6.60963 32.8536C6.53732 33.0939 6.41951 33.3161 6.2634 33.5066C6.10728 33.697 5.91613 33.8518 5.70163 33.9614C5.48713 34.071 5.25378 34.1332 5.01582 34.1441C4.77787 34.155 4.54031 34.1145 4.31765 34.0249C4.09499 33.9354 3.89191 33.7987 3.72081 33.6233C3.54972 33.4478 3.41419 33.2373 3.32251 33.0045C3.23084 32.7718 3.18493 32.5217 3.18761 32.2695V15.351C3.18736 15.0608 3.29306 14.7817 3.48261 14.572C3.67217 14.3624 3.93092 14.2399 4.20478 14.2275Z" fill="#90F8C0"/>
</svg>
