<svg width="206" height="172" viewBox="0 0 206 172" fill="none" xmlns="http://www.w3.org/2000/svg">
<path d="M79.1025 92.9668H76.9131C76.8018 92.138 76.5605 91.402 76.1895 90.7588C75.8184 90.1032 75.3236 89.5527 74.7051 89.1074C74.099 88.6621 73.3753 88.3219 72.5342 88.0869C71.7054 87.8519 70.7777 87.7344 69.751 87.7344C68.3285 87.7344 67.0482 87.9756 65.9102 88.458C64.7845 88.9281 63.8258 89.6084 63.0342 90.499C62.2425 91.3773 61.6364 92.4473 61.2158 93.709C60.7952 94.9707 60.585 96.3932 60.585 97.9766C60.585 99.5846 60.7952 101.026 61.2158 102.3C61.6488 103.574 62.2673 104.656 63.0713 105.547C63.8753 106.425 64.8525 107.099 66.0029 107.569C67.1657 108.039 68.4831 108.274 69.9551 108.274C72.2559 108.274 73.9938 107.94 75.1689 107.272C76.3441 106.592 76.9316 105.553 76.9316 104.155V101.706C76.9316 101.459 76.9131 101.273 76.876 101.149C76.8389 101.013 76.7399 100.914 76.5791 100.853C76.4307 100.791 76.1956 100.76 75.874 100.76C75.5524 100.747 75.1133 100.741 74.5566 100.741H72.2373V98.793C72.6455 98.793 73.0475 98.7992 73.4434 98.8115C73.8516 98.8115 74.2845 98.8115 74.7422 98.8115C75.2122 98.8115 75.7132 98.8177 76.2451 98.8301C76.7894 98.8301 77.3955 98.8301 78.0635 98.8301C78.2985 98.8301 78.583 98.8301 78.917 98.8301C79.251 98.8177 79.5911 98.8115 79.9375 98.8115C80.2962 98.8115 80.6426 98.8115 80.9766 98.8115C81.3229 98.7992 81.626 98.793 81.8857 98.793C81.8857 98.8177 81.8796 98.929 81.8672 99.127C81.8548 99.3125 81.8424 99.5228 81.8301 99.7578C81.8301 99.9805 81.8239 100.191 81.8115 100.389C81.7992 100.574 81.793 100.679 81.793 100.704C81.2363 100.716 80.8034 100.741 80.4941 100.778C80.1849 100.803 79.9561 100.853 79.8076 100.927C79.6592 101.001 79.5664 101.1 79.5293 101.224C79.5046 101.335 79.4922 101.49 79.4922 101.688C79.4922 102.355 79.4551 103.166 79.3809 104.118C79.319 105.058 79.2572 106.029 79.1953 107.031C78.515 107.724 77.7913 108.293 77.0244 108.738C76.2699 109.184 75.4967 109.536 74.7051 109.796C73.9258 110.043 73.1403 110.21 72.3486 110.297C71.557 110.396 70.79 110.445 70.0479 110.445C67.8955 110.445 66.0029 110.155 64.3701 109.573C62.7373 108.979 61.3643 108.145 60.251 107.068C59.1501 105.98 58.3213 104.675 57.7646 103.153C57.208 101.619 56.9297 99.9124 56.9297 98.0322C56.9297 96.2015 57.2327 94.5254 57.8389 93.0039C58.445 91.4701 59.2861 90.1589 60.3623 89.0703C61.4385 87.9694 62.7188 87.1159 64.2031 86.5098C65.6875 85.9036 67.3079 85.6006 69.0645 85.6006C70.5365 85.6006 71.9157 85.8171 73.2021 86.25C74.501 86.6706 75.6328 87.3447 76.5977 88.2725L76.7832 86.3613H79.1025V92.9668ZM93.7236 92.9668C95.0225 92.9668 96.2161 93.1709 97.3047 93.5791C98.3932 93.9873 99.3271 94.5749 100.106 95.3418C100.898 96.1087 101.51 97.0365 101.943 98.125C102.376 99.2135 102.593 100.407 102.593 101.706C102.593 102.955 102.376 104.124 101.943 105.213C101.51 106.289 100.904 107.211 100.125 107.978C99.3457 108.744 98.4118 109.338 97.3232 109.759C96.2347 110.179 95.0348 110.39 93.7236 110.39C92.4124 110.39 91.2126 110.186 90.124 109.777C89.0479 109.357 88.1201 108.763 87.3408 107.996C86.5615 107.217 85.9554 106.289 85.5225 105.213C85.1019 104.124 84.8916 102.955 84.8916 101.706C84.8916 100.407 85.1081 99.2197 85.541 98.1436C85.974 97.055 86.5801 96.1273 87.3594 95.3604C88.1387 94.5811 89.0664 93.9873 90.1426 93.5791C91.2311 93.1709 92.4248 92.9668 93.7236 92.9668ZM93.7236 94.8965C92.8577 94.8965 92.0785 95.0573 91.3857 95.3789C90.693 95.7005 90.0993 96.152 89.6045 96.7334C89.1221 97.3148 88.751 98.0322 88.4912 98.8857C88.2314 99.7269 88.1016 100.661 88.1016 101.688C88.1016 102.652 88.2314 103.562 88.4912 104.415C88.7633 105.256 89.1406 105.98 89.623 106.586C90.1178 107.18 90.7116 107.637 91.4043 107.959C92.097 108.281 92.8701 108.441 93.7236 108.441C94.5771 108.441 95.3503 108.281 96.043 107.959C96.7357 107.637 97.3294 107.18 97.8242 106.586C98.319 105.98 98.6963 105.256 98.9561 104.415C99.2282 103.562 99.3643 102.652 99.3643 101.688C99.3643 100.673 99.2282 99.7393 98.9561 98.8857C98.6963 98.0322 98.319 97.3148 97.8242 96.7334C97.3418 96.152 96.748 95.7005 96.043 95.3789C95.3503 95.0573 94.5771 94.8965 93.7236 94.8965ZM114.078 94.8965C113.237 94.8965 112.47 95.0573 111.777 95.3789C111.085 95.6882 110.491 96.1335 109.996 96.7148C109.514 97.2962 109.136 98.0137 108.864 98.8672C108.604 99.7083 108.475 100.63 108.475 101.632C108.475 102.634 108.604 103.537 108.864 104.341C109.136 105.132 109.514 105.813 109.996 106.382C110.491 106.951 111.085 107.39 111.777 107.699C112.47 107.996 113.249 108.145 114.115 108.145C114.969 108.145 115.742 107.984 116.435 107.662C117.127 107.34 117.715 106.889 118.197 106.308C118.692 105.726 119.076 105.027 119.348 104.211C119.62 103.395 119.756 102.485 119.756 101.483C119.756 100.519 119.62 99.6341 119.348 98.8301C119.076 98.0137 118.692 97.3148 118.197 96.7334C117.702 96.1396 117.103 95.6882 116.397 95.3789C115.705 95.0573 114.932 94.8965 114.078 94.8965ZM119.886 93.3193C120.442 93.3441 120.993 93.3688 121.537 93.3936C122.081 93.4059 122.632 93.4121 123.188 93.4121C123.671 93.4121 124.091 93.4121 124.45 93.4121C124.821 93.3997 125.186 93.3936 125.545 93.3936V95.0449C124.865 95.0449 124.333 95.0697 123.949 95.1191C123.578 95.1562 123.3 95.2305 123.114 95.3418C122.941 95.4408 122.836 95.583 122.799 95.7686C122.762 95.9417 122.743 96.1706 122.743 96.4551V108.85C122.743 110.581 122.533 112.029 122.112 113.191C121.704 114.354 121.11 115.282 120.331 115.975C119.564 116.68 118.624 117.174 117.511 117.459C116.41 117.756 115.16 117.904 113.763 117.904C112.451 117.904 111.208 117.762 110.033 117.478C108.858 117.205 107.763 116.779 106.749 116.197L106.897 112.301C106.922 112.313 107.027 112.319 107.213 112.319C107.337 112.319 107.479 112.319 107.64 112.319C107.813 112.319 107.967 112.313 108.104 112.301C108.264 112.301 108.431 112.295 108.604 112.282C108.716 113.024 108.908 113.637 109.18 114.119C109.464 114.602 109.823 114.985 110.256 115.27C110.701 115.554 111.215 115.752 111.796 115.863C112.39 115.987 113.051 116.049 113.781 116.049C114.561 116.049 115.303 115.944 116.008 115.733C116.725 115.535 117.35 115.214 117.882 114.769C118.426 114.323 118.859 113.742 119.181 113.024C119.502 112.307 119.663 111.429 119.663 110.39V106.976C118.958 107.965 118.067 108.72 116.991 109.239C115.927 109.746 114.721 110 113.373 110C112.148 110 111.035 109.802 110.033 109.406C109.044 108.998 108.19 108.429 107.473 107.699C106.768 106.969 106.217 106.091 105.821 105.064C105.438 104.025 105.246 102.875 105.246 101.613C105.246 100.339 105.444 99.1702 105.84 98.1064C106.248 97.0426 106.811 96.1335 107.528 95.3789C108.246 94.612 109.105 94.0182 110.107 93.5977C111.109 93.1771 112.216 92.9668 113.429 92.9668C114.814 92.9668 116.045 93.2575 117.121 93.8389C118.197 94.4079 119.119 95.249 119.886 96.3623V93.3193ZM135.36 92.9668C136.659 92.9668 137.853 93.1709 138.941 93.5791C140.03 93.9873 140.964 94.5749 141.743 95.3418C142.535 96.1087 143.147 97.0365 143.58 98.125C144.013 99.2135 144.229 100.407 144.229 101.706C144.229 102.955 144.013 104.124 143.58 105.213C143.147 106.289 142.541 107.211 141.762 107.978C140.982 108.744 140.049 109.338 138.96 109.759C137.871 110.179 136.672 110.39 135.36 110.39C134.049 110.39 132.849 110.186 131.761 109.777C130.685 109.357 129.757 108.763 128.978 107.996C128.198 107.217 127.592 106.289 127.159 105.213C126.739 104.124 126.528 102.955 126.528 101.706C126.528 100.407 126.745 99.2197 127.178 98.1436C127.611 97.055 128.217 96.1273 128.996 95.3604C129.775 94.5811 130.703 93.9873 131.779 93.5791C132.868 93.1709 134.062 92.9668 135.36 92.9668ZM135.36 94.8965C134.494 94.8965 133.715 95.0573 133.022 95.3789C132.33 95.7005 131.736 96.152 131.241 96.7334C130.759 97.3148 130.388 98.0322 130.128 98.8857C129.868 99.7269 129.738 100.661 129.738 101.688C129.738 102.652 129.868 103.562 130.128 104.415C130.4 105.256 130.777 105.98 131.26 106.586C131.755 107.18 132.348 107.637 133.041 107.959C133.734 108.281 134.507 108.441 135.36 108.441C136.214 108.441 136.987 108.281 137.68 107.959C138.372 107.637 138.966 107.18 139.461 106.586C139.956 105.98 140.333 105.256 140.593 104.415C140.865 103.562 141.001 102.652 141.001 101.688C141.001 100.673 140.865 99.7393 140.593 98.8857C140.333 98.0322 139.956 97.3148 139.461 96.7334C138.979 96.152 138.385 95.7005 137.68 95.3789C136.987 95.0573 136.214 94.8965 135.36 94.8965Z" fill="#FCFDFA"/>
<path d="M84.784 52.7794C83.6226 51.5971 81.8867 51 79.6016 51C73.0865 51 64.1627 56.7182 60.2199 62.4007V53.3884C60.2199 53.1773 60.1137 52.9748 59.9247 52.8255C59.7357 52.6761 59.4794 52.5923 59.2121 52.5923C58.9448 52.5923 58.6885 52.6761 58.4995 52.8255C58.3105 52.9748 58.2044 53.1773 58.2044 53.3884V62.4007C54.2615 56.7182 45.3378 51 38.8226 51C36.5551 51 34.7916 51.5971 33.6402 52.7794C30.8437 55.6176 32.1286 61.1885 33.7662 66.2639C34.6908 69.134 36.4241 71.1681 38.9259 72.3106C39.9183 72.7598 41.0074 73.0601 42.1381 73.1963C41.2992 74.0808 40.7026 75.0936 40.3863 76.1703C40.07 77.247 40.0409 78.3639 40.301 79.4499C40.561 80.5359 41.1045 81.5673 41.8967 82.4783C42.6889 83.3893 43.7126 84.16 44.9025 84.7413C46.0924 85.3227 47.4226 85.7019 48.8082 85.8549C50.1938 86.0079 51.6045 85.9312 52.9506 85.6299C54.2967 85.3285 55.5486 84.8091 56.6266 84.1045C57.7046 83.4 58.5852 82.5259 59.2121 81.5378C59.8383 82.5267 60.7184 83.4018 61.7963 84.1072C62.8742 84.8126 64.1263 85.3329 65.4728 85.6348C66.8193 85.9368 68.2307 86.0139 69.617 85.8612C71.0032 85.7085 72.3341 85.3293 73.5246 84.7478C74.7151 84.1663 75.7393 83.3952 76.5318 82.4838C77.3243 81.5723 77.8677 80.5404 78.1275 79.4538C78.3873 78.3673 78.3578 77.2499 78.0407 76.1728C77.7237 75.0958 77.1261 74.0828 76.2861 73.1982C77.417 73.0614 78.506 72.7604 79.4983 72.3106C82.0001 71.1681 83.7334 69.126 84.6581 66.2639C86.2881 61.1885 87.5806 55.6176 84.784 52.7794ZM50.1423 84.4377C48.089 84.4203 46.1208 83.7869 44.6366 82.6658C43.1524 81.5448 42.2632 80.0199 42.1492 78.4002C42.0351 76.7804 42.7048 75.187 44.0224 73.9428C45.3401 72.6986 47.2072 71.8967 49.2454 71.6995C49.3777 71.688 49.5059 71.656 49.6226 71.6054C49.7393 71.5548 49.8422 71.4865 49.9255 71.4044C50.0088 71.3224 50.0708 71.2281 50.108 71.1271C50.1452 71.0262 50.1568 70.9204 50.1423 70.8158C50.1277 70.7113 50.0872 70.61 50.0231 70.5178C49.959 70.4256 49.8726 70.3443 49.7687 70.2785C49.6648 70.2127 49.5456 70.1637 49.4177 70.1343C49.2899 70.105 49.156 70.0958 49.0237 70.1073C47.2095 70.2682 45.486 70.8189 44.0403 71.6995C38.296 71.9463 36.3108 67.7188 35.7263 65.8798C34.3028 61.4533 32.9549 56.0754 35.235 53.7646C36.0009 52.9724 37.1774 52.5923 38.8226 52.5923C46.2498 52.5923 58.2044 61.8832 58.2044 67.6532V78.0686C58.2044 79.7578 57.355 81.3778 55.843 82.5722C54.3311 83.7667 52.2805 84.4377 50.1423 84.4377ZM82.703 65.8718C82.1135 67.7069 80.1282 71.9364 74.389 71.6916C72.9405 70.8135 71.2153 70.2656 69.4006 70.1073C69.1333 70.084 68.8653 70.1456 68.6555 70.2785C68.4457 70.4114 68.3114 70.6047 68.282 70.8158C68.2526 71.027 68.3305 71.2387 68.4987 71.4044C68.6669 71.5701 68.9116 71.6763 69.1789 71.6995C70.7312 71.8325 72.2016 72.3176 73.4125 73.0963C74.6235 73.875 75.5232 74.914 76.003 76.0878C76.4829 77.2616 76.5223 78.5201 76.1167 79.7113C75.711 80.9024 74.8775 81.9753 73.7169 82.8004C72.5562 83.6256 71.118 84.1676 69.576 84.3612C68.0339 84.5547 66.4539 84.3914 65.0267 83.8911C63.5995 83.3907 62.3862 82.5747 61.5332 81.5415C60.6802 80.5083 60.2241 79.3021 60.2199 78.0686V67.6532C60.2199 61.8812 72.1744 52.5923 79.6016 52.5923C81.2468 52.5923 82.4234 52.9724 83.1943 53.7566C85.4693 56.0674 84.1265 61.4453 82.703 65.8718Z" fill="#90F8C0"/>
</svg>
