<svg width="65" height="67" viewBox="0 0 65 67" fill="none" xmlns="http://www.w3.org/2000/svg">
<path d="M32.5 0C49.8615 0 65 14.7735 65 31.825C65 48.5884 50.2028 61.7807 32.5 61.7807C28.7137 61.7828 24.951 61.1654 21.3525 59.9516C19.8445 61.4591 19.3277 61.9716 16.1265 65.1542C13.819 66.9498 11.648 67.5595 9.70775 66.4272C7.75125 65.2882 7.163 63.0705 7.56275 60.1493L8.86275 52.3806C3.2175 46.9067 0 39.6707 0 31.825C0 14.7735 15.1353 0 32.5 0ZM32.5 4.69C17.5955 4.69 4.55 17.42 4.55 31.825C4.55 38.6758 7.514 44.9838 12.74 49.6805L12.805 49.7375L13.7703 50.6017L13.5525 51.9083L13.104 54.6017L12.9837 55.3186L12.0575 60.8729C12.0029 61.2468 11.9703 61.6238 11.96 62.0018V62.3201C11.96 62.3368 11.9567 62.3435 11.9535 62.3469C11.9762 62.3134 12.4183 62.1693 13.1755 61.5998L20.228 54.5447L21.5735 55.0673C25.0686 56.4115 28.7695 57.098 32.5 57.0941C47.827 57.0941 60.45 45.8381 60.45 31.825C60.45 17.4234 47.4045 4.69 32.5 4.69ZM16.9878 26.1736C17.6425 26.1489 18.2953 26.2605 18.9073 26.5018C19.5192 26.743 20.0777 27.109 20.5494 27.5777C21.021 28.0464 21.3962 28.6084 21.6524 29.2299C21.9087 29.8515 22.0407 30.5199 22.0407 31.1952C22.0407 31.8705 21.9087 32.5389 21.6524 33.1605C21.3962 33.782 21.021 34.344 20.5494 34.8127C20.0777 35.2814 19.5192 35.6474 18.9073 35.8886C18.2953 36.1299 17.6425 36.2415 16.9878 36.2169C15.7265 36.1694 14.5322 35.6195 13.6562 34.6829C12.7802 33.7464 12.2907 32.4962 12.2907 31.1952C12.2907 29.8943 12.7802 28.644 13.6562 27.7075C14.5322 26.7709 15.7265 26.221 16.9878 26.1736ZM33.2313 26.1736C33.886 26.1489 34.5388 26.2605 35.1508 26.5018C35.7627 26.743 36.3212 27.109 36.7929 27.5777C37.2645 28.0464 37.6397 28.6084 37.8959 29.2299C38.1522 29.8515 38.2842 30.5199 38.2842 31.1952C38.2842 31.8705 38.1522 32.5389 37.8959 33.1605C37.6397 33.782 37.2645 34.344 36.7929 34.8127C36.3212 35.2814 35.7627 35.6474 35.1508 35.8886C34.5388 36.1299 33.886 36.2415 33.2313 36.2169C31.97 36.1694 30.7757 35.6195 29.8997 34.6829C29.0237 33.7464 28.5342 32.4962 28.5342 31.1952C28.5342 29.8943 29.0237 28.644 29.8997 27.7075C30.7757 26.7709 31.97 26.221 33.2313 26.1736ZM49.4715 26.1736C50.1262 26.1489 50.7791 26.2605 51.391 26.5018C52.003 26.743 52.5615 27.109 53.0331 27.5777C53.5048 28.0464 53.8799 28.6084 54.1362 29.2299C54.3924 29.8515 54.5245 30.5199 54.5245 31.1952C54.5245 31.8705 54.3924 32.5389 54.1362 33.1605C53.8799 33.782 53.5048 34.344 53.0331 34.8127C52.5615 35.2814 52.003 35.6474 51.391 35.8886C50.7791 36.1299 50.1262 36.2415 49.4715 36.2169C48.2102 36.1694 47.016 35.6195 46.14 34.6829C45.264 33.7464 44.7745 32.4962 44.7745 31.1952C44.7745 29.8943 45.264 28.644 46.14 27.7075C47.016 26.7709 48.2102 26.221 49.4715 26.1736Z" fill="#90F8C0"/>
</svg>
