<svg width="74" height="73" viewBox="0 0 74 73" fill="none" xmlns="http://www.w3.org/2000/svg">
<path fill-rule="evenodd" clip-rule="evenodd" d="M40.0831 9.12501C40.0831 8.31831 39.7583 7.54465 39.18 6.97423C38.6018 6.4038 37.8175 6.08334 36.9998 6.08334C36.182 6.08334 35.3978 6.4038 34.8195 6.97423C34.2413 7.54465 33.9165 8.31831 33.9165 9.12501V11.4063H32.199C28.8938 11.406 25.7127 12.6485 23.3034 14.8806C20.8941 17.1127 19.4376 20.1667 19.2305 23.4208L18.5491 34.1701C18.2893 38.2686 16.8943 42.2181 14.5161 45.5885C14.0247 46.2852 13.7245 47.0956 13.6446 47.9407C13.5647 48.7858 13.7078 49.6369 14.0601 50.4113C14.4124 51.1856 14.9619 51.8569 15.655 52.3597C16.3482 52.8626 17.1614 53.1799 18.0157 53.2809L28.5206 54.5219V57.7917C28.5206 60.0101 29.414 62.1377 31.0041 63.7063C32.5943 65.275 34.751 66.1563 36.9998 66.1563C39.2486 66.1563 41.4053 65.275 42.9955 63.7063C44.5856 62.1377 45.479 60.0101 45.479 57.7917V54.5219L55.9839 53.2778C56.8377 53.1766 57.6504 52.8592 58.3431 52.3565C59.0358 51.8539 59.5849 51.183 59.9372 50.4091C60.2894 49.6352 60.4327 48.7846 60.3532 47.9399C60.2737 47.0952 59.9741 46.2852 59.4835 45.5885C57.1051 42.2182 55.7101 38.2686 55.4505 34.1701L54.769 23.4239C54.5627 20.1692 53.1066 17.1144 50.6972 14.8817C48.2878 12.6489 45.1063 11.4061 41.8005 11.4063H40.0831V9.12501ZM32.199 15.9688C30.0702 15.9685 28.0213 16.7686 26.4695 18.2062C24.9177 19.6438 23.9796 21.6108 23.8463 23.7068L23.168 34.456C22.8545 39.3865 21.1759 44.1376 18.3148 48.1922C18.2792 48.2426 18.2575 48.3012 18.2517 48.3623C18.2459 48.4234 18.2562 48.485 18.2817 48.541C18.3071 48.597 18.3468 48.6456 18.3969 48.682C18.447 48.7184 18.5058 48.7414 18.5676 48.7488L30.09 50.1145C34.6811 50.6559 39.3185 50.6559 43.9095 50.1145L55.432 48.7488C55.4937 48.7414 55.5525 48.7184 55.6027 48.682C55.6528 48.6456 55.6925 48.597 55.7179 48.541C55.7434 48.485 55.7537 48.4234 55.7479 48.3623C55.7421 48.3012 55.7203 48.2426 55.6848 48.1922C52.8248 44.1373 51.1472 39.3862 50.8347 34.456L50.1533 23.7068C50.0199 21.6108 49.0819 19.6438 47.5301 18.2062C45.9782 16.7686 43.9294 15.9685 41.8005 15.9688H32.199ZM36.9998 61.5938C34.8723 61.5938 33.1456 59.8904 33.1456 57.7917V55.5104H40.854V57.7917C40.854 59.8904 39.1273 61.5938 36.9998 61.5938Z" fill="#90F8C0"/>
</svg>
