<svg width="76" height="82" viewBox="0 0 76 82" fill="none" xmlns="http://www.w3.org/2000/svg">
<path opacity="0.6" d="M47.4997 6.83331H44.333C35.3777 6.83331 30.8968 6.83331 28.1165 9.83656C25.333 12.8364 25.333 17.671 25.333 27.3333V54.6666C25.333 64.329 25.333 69.1636 28.1165 72.1634C30.8968 75.1666 35.3777 75.1666 44.333 75.1666H47.4997C56.455 75.1666 60.9358 75.1666 63.7162 72.1634C66.4997 69.1636 66.4997 64.329 66.4997 54.6666V27.3333C66.4997 17.671 66.4997 12.8364 63.7162 9.83656C60.9358 6.83331 56.455 6.83331 47.4997 6.83331Z" fill="#90F8C0"/>
<path opacity="0.4" d="M25.3333 27.3333C25.3333 22.0785 25.3333 18.2552 25.7798 15.375H25.3333C17.8695 15.375 14.136 15.375 11.818 17.876C9.5 20.377 9.5 24.4052 9.5 32.4583V49.5417C9.5 57.5948 9.5 61.6196 11.818 64.124C14.136 66.625 17.8695 66.625 25.3333 66.625H25.7798C25.3333 63.7448 25.3333 59.9215 25.3333 54.6667V38.4375V27.3333Z" fill="#90F8C0"/>
<path fill-rule="evenodd" clip-rule="evenodd" d="M14.1545 39.1891C13.7098 39.6696 13.46 40.3209 13.46 41C13.46 41.679 13.7098 42.3303 14.1545 42.8108L20.4879 49.6441C20.9381 50.0968 21.5336 50.3432 22.1489 50.3315C22.7641 50.3198 23.3512 50.0508 23.7863 49.5814C24.2215 49.1119 24.4707 48.4785 24.4816 47.8146C24.4924 47.1507 24.2641 46.5082 23.8445 46.0225L21.5645 43.5625H44.3329C44.9628 43.5625 45.5668 43.2925 46.0122 42.8119C46.4576 42.3314 46.7079 41.6796 46.7079 41C46.7079 40.3204 46.4576 39.6686 46.0122 39.188C45.5668 38.7075 44.9628 38.4375 44.3329 38.4375H21.5645L23.8445 35.9775C24.0779 35.7429 24.265 35.46 24.3948 35.1456C24.5247 34.8313 24.5944 34.492 24.6001 34.1479C24.6057 33.8039 24.547 33.4621 24.4276 33.143C24.3081 32.8239 24.1304 32.5341 23.9048 32.2908C23.6793 32.0474 23.4107 31.8556 23.1149 31.7267C22.8192 31.5978 22.5024 31.5346 22.1835 31.5406C21.8647 31.5467 21.5502 31.622 21.2588 31.7621C20.9675 31.9021 20.7053 32.104 20.4879 32.3558L14.1545 39.1891Z" fill="#90F8C0"/>
</svg>
