<svg width="46" height="40" viewBox="0 0 46 40" fill="none" xmlns="http://www.w3.org/2000/svg">
<path fill-rule="evenodd" clip-rule="evenodd" d="M1.92821 7.03479C2.73683 3.12696 7.08018 0 12.588 0C15.8879 0 18.8028 1.14087 20.7566 2.88696C20.9077 3.02203 21.0203 3.17721 21.0877 3.34359C21.1552 3.50998 21.1762 3.68429 21.1497 3.85653C21.1231 4.02877 21.0495 4.19555 20.933 4.3473C20.8166 4.49906 20.6595 4.63281 20.4709 4.74087C20.0902 4.95962 19.6042 5.06103 19.1196 5.02289C18.6349 4.98475 18.1911 4.81017 17.8853 4.53739C16.5537 3.34783 14.6556 2.63652 12.588 2.63652C9.33658 2.63652 6.40713 4.45044 5.65661 7.04348C5.99066 7.07314 6.30689 7.16831 6.57062 7.31855C6.83435 7.46879 7.03539 7.6683 7.15168 7.89521C7.26797 8.12211 7.29503 8.36763 7.22989 8.60485C7.16475 8.84207 7.00992 9.06182 6.78239 9.24L4.99082 10.6487C4.81842 10.7842 4.60861 10.8924 4.37477 10.9665C4.14092 11.0405 3.88817 11.0788 3.63262 11.0788C3.37706 11.0788 3.12431 11.0405 2.89047 10.9665C2.65663 10.8924 2.44682 10.7842 2.27441 10.6487L0.482846 9.24C0.236658 9.04743 0.0758675 8.80656 0.0209687 8.54809C-0.03393 8.28963 0.0195494 8.02527 0.174591 7.78872C0.329632 7.55217 0.579214 7.35414 0.891524 7.21987C1.20383 7.0856 1.56473 7.02116 1.92821 7.03479ZM22.1294 5.62609C22.3849 5.62603 22.6376 5.66419 22.8714 5.73815C23.1053 5.81211 23.3151 5.92024 23.4876 6.05565L25.2791 7.46261C25.5262 7.65511 25.6877 7.89615 25.743 8.15492C25.7984 8.4137 25.7451 8.67845 25.59 8.91536C25.4348 9.15226 25.1848 9.35056 24.872 9.4849C24.5592 9.61925 24.1977 9.68354 23.8338 9.66957C23.0276 13.5757 18.6842 16.7026 13.1739 16.7026C10.1041 16.7026 7.36344 15.7148 5.42661 14.1704C5.26522 14.0419 5.1407 13.8918 5.06016 13.7287C4.97962 13.5656 4.94465 13.3926 4.95724 13.2198C4.96983 13.047 5.02975 12.8776 5.13355 12.7214C5.23735 12.5652 5.38301 12.4253 5.56219 12.3096C5.92512 12.075 6.40281 11.9536 6.89033 11.9718C7.37786 11.9901 7.83537 12.1466 8.16238 12.407C9.46974 13.4504 11.2468 14.0661 13.1739 14.0661C16.4254 14.0661 19.3548 12.2539 20.1054 9.65913C19.7713 9.62948 19.4551 9.53431 19.1913 9.38407C18.9276 9.23382 18.7266 9.03431 18.6103 8.80741C18.494 8.58051 18.4669 8.33498 18.5321 8.09776C18.5972 7.86054 18.752 7.64079 18.9796 7.46261L20.7712 6.05565C20.9436 5.92024 21.1535 5.81211 21.3873 5.73815C21.6211 5.66419 21.8739 5.62603 22.1294 5.62609Z" fill="#90F8C0"/>
<path fill-rule="evenodd" clip-rule="evenodd" d="M46.0003 18.9009V25.9339C46.0003 32.5652 46.0003 35.8817 43.1266 37.9409C40.2528 40 35.6262 40 26.373 40C17.1222 40 12.4956 40 9.6194 37.9409C6.74805 35.88 6.74805 32.5652 6.74805 25.9339V22.9217C6.74805 22.4539 6.74805 22.2209 6.80857 22.0278C6.91154 21.7048 7.13963 21.4092 7.46651 21.1753C7.79338 20.9415 8.2057 20.7788 8.65582 20.7061C8.92214 20.6609 9.2514 20.6609 9.90266 20.6609C13.8102 20.6609 15.7616 20.6609 17.3764 20.3983C20.0781 19.9586 22.5518 18.9796 24.5127 17.574C26.4736 16.1685 27.8419 14.3936 28.4599 12.4539C28.8279 11.2974 28.8279 9.89913 28.8279 7.10261C28.8279 6.64 28.8279 6.40695 28.8909 6.21217C28.9988 5.88556 29.2336 5.58766 29.5679 5.35307C29.9021 5.11849 30.3222 4.95686 30.7793 4.88695C31.0504 4.84521 31.3652 4.85043 31.9898 4.85913C37.6357 4.94087 40.9041 5.30261 43.1266 6.89391C46.0003 8.95652 46.0003 12.2713 46.0003 18.9026M19.013 33.407C18.7622 33.3956 18.5107 33.4213 18.2742 33.4825C18.0377 33.5437 17.8212 33.639 17.6379 33.7626C17.4547 33.8862 17.3087 34.0355 17.2088 34.2012C17.109 34.3669 17.0575 34.5455 17.0575 34.7261C17.0575 34.9067 17.109 35.0853 17.2088 35.251C17.3087 35.4167 17.4547 35.566 17.6379 35.6896C17.8212 35.8132 18.0377 35.9085 18.2742 35.9697C18.5107 36.0309 18.7622 36.0566 19.013 36.0452H33.7329C33.9819 36.0544 34.2308 36.0271 34.4646 35.965C34.6984 35.9029 34.9121 35.8073 35.0928 35.684C35.2735 35.5607 35.4174 35.4122 35.5158 35.2477C35.6141 35.0832 35.6648 34.906 35.6648 34.727C35.6648 34.5479 35.6141 34.3707 35.5158 34.2062C35.4174 34.0417 35.2735 33.8932 35.0928 33.7699C34.9121 33.6466 34.6984 33.551 34.4646 33.4889C34.2308 33.4268 33.9819 33.3995 33.7329 33.4087L19.013 33.407Z" fill="#90F8C0"/>
</svg>
