<svg width="199" height="187" viewBox="0 0 199 187" fill="none" xmlns="http://www.w3.org/2000/svg">
<path fill-rule="evenodd" clip-rule="evenodd" d="M108.976 40.0714L127.928 57.881V66.7857C127.936 73.7395 125.057 80.4218 119.904 85.4128C114.752 90.4039 107.731 93.3102 100.334 93.5142C92.9373 93.7183 85.7473 91.204 80.2919 86.5057C74.8365 81.8073 71.5457 75.2951 71.1187 68.353L71.0713 57.881L108.976 40.0714Z" stroke="#90F8C0" stroke-linecap="round" stroke-linejoin="round"/>
<path d="M52.1191 106.857V66.7857C52.1191 54.9773 57.111 43.6525 65.9967 35.3026C74.8824 26.9528 86.9339 22.2619 99.5001 22.2619C112.066 22.2619 124.118 26.9528 133.003 35.3026C141.889 43.6525 146.881 54.9773 146.881 66.7857V106.857" stroke="#90F8C0" stroke-linejoin="round"/>
<path fill-rule="evenodd" clip-rule="evenodd" d="M165.834 146.929V140.446C165.834 112.066 130.904 93.5 99.5003 93.5C68.0962 93.5 33.167 112.066 33.167 140.446V146.929C33.167 149.29 34.1654 151.555 35.9425 153.225C37.7196 154.895 40.1299 155.833 42.6432 155.833H156.357C158.871 155.833 161.281 154.895 163.058 153.225C164.835 151.555 165.834 149.29 165.834 146.929Z" stroke="#90F8C0" stroke-linecap="round" stroke-linejoin="round"/>
</svg>
